<?xml version="1.0" encoding="utf-8"?>
<!-- Generator: Adobe Illustrator 25.0.1, SVG Export Plug-In . SVG Version: 6.00 Build 0)  -->
<svg version="1.1" id="Calque_1" xmlns="http://www.w3.org/2000/svg" xmlns:xlink="http://www.w3.org/1999/xlink" x="0px" y="0px"
	 viewBox="0 0 80 42.1" style="enable-background:new 0 0 80 42.1;" xml:space="preserve">
<style type="text/css">
	.st0{fill:#FFFFFF;}
</style>
<g id="Calque_2_1_">
	<g id="Layer_1">
		<path class="st0" d="M31,37.9c-1.7,0.5-3.5-0.6-4-2.3c0-0.1,0-0.1,0-0.2c0-0.2-0.3-0.4-0.4-0.4c-1.9,0-3.9,0-5.9,0
			c0,0.2,0,0.4,0,0.5c0.3,2.6,1.4,4.9,3.3,6.7l7.3-4.3L31,37.9"/>
		<path class="st0" d="M39.4,1.1V0.4h-6.3v2.7l-0.5-0.5c-1.2-1.6-3-2.6-5-2.7c-2-0.2-4.1,0.5-5.4,2.1c-1,1.3-1.5,3-1.4,4.7
			c0,4.8-0.1,9.5-0.1,14.3c0,1.6,0,3.2,0.2,4.8c0,2.1,1.2,4.1,3.1,5.1c2.9,1.5,6.4,0.7,8.5-1.7l0.7-0.8c0,2.4,0,4.5,0,6.7
			c0,0.8-0.3,1.6-0.8,2.2l7.1-4.3L39.4,1.1 M33.1,21.9c0.1,1.3-0.6,2.6-1.7,3.2c-1.4,0.8-3.1,0.4-3.9-1c-0.3-0.4-0.4-0.9-0.4-1.4
			c-0.1-3.5-0.1-7-0.1-10.5c0-1,0-2,0.1-3c0-1.6,1.4-3,3.1-2.9c1.5,0,2.7,1.1,2.9,2.6c0.1,0.5,0.1,1,0.1,1.5c0,1.8,0,3.7,0,5.5
			S33.1,19.9,33.1,21.9"/>
		<path class="st0" d="M67.8,9.8c-0.1-1.3,0.5-2.5,1.5-3.2c1.4-0.9,3.3-0.5,4.2,0.9c0.3,0.5,0.5,1,0.5,1.5c0,0.2,0,0.5,0,0.7v2.7
			l6-3.7c0-0.2,0-0.5,0-0.7c0-2.6-1.3-5-3.5-6.5c-2.2-1.5-4.8-2-7.4-1.5C67.6,0.4,66,1,64.8,2c-2,1.7-3.2,4.1-3.1,6.8
			c0,3.6,0,7.3,0,10.9l6.1-3.6C67.8,14,67.8,11.9,67.8,9.8"/>
		<path class="st0" d="M56.9,15.5c-1.2-0.8-2.5-1.6-3.9-2.1c-1.3-0.6-2.7-1.1-4-1.7c-1.4-0.8-2-2.6-1.2-4c0.1-0.1,0.1-0.2,0.2-0.3
			c1-1.4,2.9-1.8,4.4-0.8C53.2,7,53.7,7.9,53.8,9h5.9c-0.1-0.7-0.1-1.3-0.3-2C58.5,2.3,54-0.8,49.3,0.1c-0.2,0-0.4,0.1-0.6,0.1
			c-4.8,1-7.9,5.7-6.9,10.6c0.1,0.5,0.3,1.1,0.5,1.6c0.8,2.2,2.6,3.9,4.7,4.7c1.5,0.7,3.1,1.2,4.6,1.8c1.6,0.5,2.7,2.1,2.5,3.8
			c-0.1,0.9-0.5,1.6-1.1,2.2l6.9-4.1C59.6,18.7,58.6,16.8,56.9,15.5"/>
		<path class="st0" d="M51.3,25.8c-1.5,0.4-3-0.3-3.6-1.8c-0.2-0.5-0.3-1-0.5-1.6h-5.8c0.1,0.6,0.1,1.1,0.2,1.6
			c0.3,2.3,1.5,4.4,3.3,5.8l7-4.2C51.7,25.7,51.5,25.8,51.3,25.8"/>
		<path class="st0" d="M18.3,15.8c0-2.6,0.1-5.1,0-7.7c0-2.6-1.3-5-3.5-6.5c-2.2-1.5-4.8-2-7.4-1.5C5.9,0.4,4.4,1,3.1,2
			C1.1,3.7-0.1,6.2,0,8.8C0,13.9,0,18.9,0.2,24c0.1,2.5,1.4,4.8,3.5,6.1c2.3,1.5,5,2,7.6,1.4c4-0.6,7-4.1,7-8.1
			C18.4,20.8,18.3,18.3,18.3,15.8 M12.2,22.5c0.1,1.2-0.6,2.3-1.8,2.7c-1.2,0.5-2.5,0.3-3.4-0.6c-0.7-0.8-1-1.8-0.9-2.8
			c0-4,0-8,0-12C6,8.6,6.6,7.4,7.6,6.7c1.4-0.9,3.3-0.5,4.2,0.9c0.3,0.5,0.4,1,0.5,1.5c0,0.2,0,0.5,0,0.7c0,2,0,4,0,6l0,0
			C12.2,18.1,12.2,20.3,12.2,22.5"/>
	</g>
</g>
</svg>
